<svg t="1655278845718" class="icon" viewBox="0 0 1024 1024" version="1.1" xmlns="http://www.w3.org/2000/svg" p-id="4131" width="200" height="200"><path d="M512.66 509.81m-449.06 0a449.06 449.06 0 1 0 898.12 0 449.06 449.06 0 1 0-898.12 0Z" fill="#E0E0D1" p-id="4132"></path><path d="M514.999 229.147c-119.916 0-252.596 75.428-295.861 219.697-21.86 72.891 72.79 43.766 79.225 128.5 5.262 69.289-15.624 92.608-20.173 134.192-6.14 56.132 124.544 140.331 241.925 135.008 172.267-7.812 304.247-136.225 304.247-308.668S687.443 229.147 514.999 229.147zM402.734 734.34c-31.002 0-56.133-25.132-56.133-56.132 0-31.002 25.131-56.133 56.133-56.133s56.132 25.131 56.132 56.133c0.001 31-25.13 56.132-56.132 56.132z" fill="#231F20" p-id="4133"></path><path d="M514.999 201.081c-119.916 0-252.596 75.428-295.861 219.697-21.86 72.891 72.79 43.766 79.225 128.5 5.262 69.289-15.624 92.608-20.173 134.192-6.14 56.133 124.544 140.331 241.925 135.008 172.267-7.812 304.247-136.225 304.247-308.668S687.443 201.081 514.999 201.081zM402.734 706.273c-31.002 0-56.133-25.132-56.133-56.133 0-31.002 25.131-56.132 56.133-56.132s56.132 25.131 56.132 56.132c0.001 31.002-25.13 56.133-56.132 56.133z" fill="#E0995E" p-id="4134"></path><path d="M356.638 411.578m-56.132 0a56.132 56.132 0 1 0 112.264 0 56.132 56.132 0 1 0-112.264 0Z" fill="#231F20" p-id="4135"></path><path d="M514.999 335.977m-56.132 0a56.132 56.132 0 1 0 112.264 0 56.132 56.132 0 1 0-112.264 0Z" fill="#231F20" p-id="4136"></path><path d="M672.324 407.761m-56.132 0a56.132 56.132 0 1 0 112.264 0 56.132 56.132 0 1 0-112.264 0Z" fill="#231F20" p-id="4137"></path><path d="M714.094 583.776m-56.132 0a56.132 56.132 0 1 0 112.264 0 56.132 56.132 0 1 0-112.264 0Z" fill="#231F20" p-id="4138"></path><path d="M586.627 721.768m-56.132 0a56.132 56.132 0 1 0 112.264 0 56.132 56.132 0 1 0-112.264 0Z" fill="#231F20" p-id="4139"></path><path d="M356.638 383.512m-56.132 0a56.132 56.132 0 1 0 112.264 0 56.132 56.132 0 1 0-112.264 0Z" fill="#C75C5C" p-id="4140"></path><path d="M514.999 307.911m-56.132 0a56.132 56.132 0 1 0 112.264 0 56.132 56.132 0 1 0-112.264 0Z" fill="#F5CF87" p-id="4141"></path><path d="M672.324 379.695m-56.132 0a56.132 56.132 0 1 0 112.264 0 56.132 56.132 0 1 0-112.264 0Z" fill="#76C2AF" p-id="4142"></path><path d="M714.094 555.71m-56.132 0a56.132 56.132 0 1 0 112.264 0 56.132 56.132 0 1 0-112.264 0Z" fill="#FFFFFF" p-id="4143"></path><path d="M586.627 693.702m-56.132 0a56.132 56.132 0 1 0 112.264 0 56.132 56.132 0 1 0-112.264 0Z" fill="#4F5D73" p-id="4144"></path></svg>