<svg t="1655284113522" class="icon" viewBox="0 0 1024 1024" version="1.1" xmlns="http://www.w3.org/2000/svg" p-id="23016" width="200" height="200"><path d="M512 512m-422.1 0a422.1 422.1 0 1 0 844.2 0 422.1 422.1 0 1 0-844.2 0Z" fill="#2C3D71" p-id="23017"></path><path d="M449.85 688.09c9.29 0.66 17.95 3.72 26.11 7.71a84.75 84.75 0 0 1 22.31 16 67.57 67.57 0 0 1 15.49 23.53c3.18 9 3.86 19.1 0.84 27.85a113.28 113.28 0 0 0-11.73-22.32 156.83 156.83 0 0 0-15.6-18.1c-5.62-5.78-11.82-11.22-18.09-16.86s-12.76-11.32-19.33-17.81z" fill="#FFFFFF" p-id="23018"></path><path d="M936.62 628.83l-2.51-5.48s-25.9-5.18-40.14-9.71-34.31-2.59-34.31-2.59-44.66 17.48-92.58 20.72-86.76-13.6-110.08-21.37-80.28 18.13-88 20.07-80.28 8.42-106.17-1.94-77.72-15.53-102.97-12.3-62.8 27.84-83.51 27.84-20.72 0-75.75-21.36c-50.21-19.49-91.14 1.38-97.94 5.19 53.29 180 219.82 311.38 417.11 311.38 196.95 0 363.23-130.91 416.85-310.45z" fill="#8DA0B7" p-id="23019"></path><path d="M116.92 621.26c9.9-4.71 20.94-6.92 31.94-7.93a155.38 155.38 0 0 1 33.26 1c11.07 1.37 21.88 4.18 32.59 7.28 5.34 1.61 10.54 3.61 15.8 5.46l15.39 6.53-0.47-0.21c17.8 5.49 38.82 6.94 53.78-1.59 17.64-10.09 37.24-20.05 58.26-24.65a177.54 177.54 0 0 1 64.12-3.44c21.33 2.67 41.91 8.93 61.46 17l-1-0.36a120.55 120.55 0 0 0 12.48 2.73c4.35 0.77 8.77 1.29 13.2 1.73a200 200 0 0 0 26.68 0.62 185.9 185.9 0 0 0 26.43-3.27c8.56-1.81 17.52-4.37 26.35-7 17.58-5.39 36.38-12 56.87-13.36a129.19 129.19 0 0 1 30.16 1.41c5 0.6 9.73 1.84 14.58 2.81 4.73 1.24 9.49 2.46 14.1 4l13.57 4.45c4.31 1.36 8.59 2.89 13 3.89l6.57 1.68 6.64 1.27c4.42 1 8.91 1.34 13.38 2a172.85 172.85 0 0 0 27 0.58 163.52 163.52 0 0 0 26.94-4.2c8.91-2.05 17.65-5.09 27.2-7.41 4.33-1 8.91-2.53 13.81-3.52a60.13 60.13 0 0 1 14.83-1.16c19.62 1 37.57 7.36 55.31 13.66-9.2-2.08-18.4-4.09-27.66-5.5s-18.55-2.56-27.58-1.95a58 58 0 0 0-13.13 2.19c-4.26 1.22-8.51 3-13.23 4.58-8.58 2.77-17.34 6.83-26.65 9.55a166.22 166.22 0 0 1-57.89 7.5c-4.88-0.43-9.81-0.62-14.64-1.44l-7.28-1-7.19-1.48c-4.83-0.87-9.51-2.28-14.23-3.54l-13.45-3.73c-4.4-1.2-8.83-2.08-13.22-3.14-4.41-0.73-8.81-1.77-13.21-2.15a110.77 110.77 0 0 0-26.15-0.5c-17.22 1.57-34.2 8-52.48 13.73-9.16 2.85-18.28 5.58-28.13 7.76a206.21 206.21 0 0 1-29.51 3.86 185.19 185.19 0 0 1-29.72-0.63c-4.94-0.53-9.86-1.17-14.77-2.08a135.73 135.73 0 0 1-15-3.49l-0.41-0.12-0.55-0.24a224.57 224.57 0 0 0-56-16.23 158.68 158.68 0 0 0-57.58 1.45c-19.07 3.82-36.88 11.41-55 20.78-10.56 5.33-22.48 7-33.44 6.31a106 106 0 0 1-31.91-7.25l-0.25-0.1-0.23-0.11-14.34-7.21c-4.92-2.06-9.77-4.35-14.73-6.34-10-3.8-20.13-7.36-30.62-9.54a159.77 159.77 0 0 0-31.97-4.05c-10.73-0.06-21.71 0.59-32.08 4.11zM152 701.75c11.29-10.59 27.26-16.28 43.51-16.55a73.72 73.72 0 0 1 24.15 3.8 83.44 83.44 0 0 1 11.31 4.72l5 2.61c1.53 0.84 3.12 1.55 4.7 2.28A114.79 114.79 0 0 0 281 709a147.15 147.15 0 0 0 43.71-3.59c-12.3 9.38-27.79 14.39-43.61 15.78a93.78 93.78 0 0 1-47-8.5c-1.82-0.87-3.64-1.73-5.39-2.72l-4.93-2.69a82.62 82.62 0 0 0-9.25-4.47 81.77 81.77 0 0 0-19.79-5.44 92.9 92.9 0 0 0-42.74 4.38zM746.35 722.87c6.74-10.34 16.93-18.25 28.55-23.51a65.52 65.52 0 0 1 38.36-4.63 68 68 0 0 1 18.55 6.37l7.52 4.11a53.29 53.29 0 0 0 7.16 3c9.8 3.45 21 3.21 33 0.43a43.1 43.1 0 0 1-35.6 11.59 47.35 47.35 0 0 1-9.77-2.28c-3.2-1-6.27-2.58-8.55-3.44a75.11 75.11 0 0 0-46.81-3.65c-10.76 2.37-21.5 6.58-32.41 12.01zM335.91 833.11c9.17-13.33 23.6-23 39.46-28.36s33.59-5.87 50-2.37a125.29 125.29 0 0 1 23.85 7.62 188 188 0 0 1 21.28 11.41 186.71 186.71 0 0 0 20.21 10.32c7 2.79 14.19 5.58 22.27 5.82-7.41 3.89-16.37 3.77-24.54 2.78-8.33-1-16.29-3.6-24-6.64-7.86-3.37-14.13-6.74-21.21-9.54a146 146 0 0 0-21.22-6.78 109.8 109.8 0 0 0-43.86-1.65 108.06 108.06 0 0 0-42.24 17.39z" fill="#FFFFFF" p-id="23020"></path><path d="M480.92 600c9.91-17.53 21.85-33.8 34.27-49.68a522.5 522.5 0 0 1 40.44-45.09c28.7-28.53 60.89-53.93 96.37-74.34a395.19 395.19 0 0 1 55.73-25.86c19.46-6.6 39.44-11.93 59.85-14.54a255.72 255.72 0 0 1 61.35-0.31 234.29 234.29 0 0 1 58.55 15.59c-19.89-3.13-39.5-5.75-59.17-5.44a307.63 307.63 0 0 0-58.06 6.1c-38 8.16-74.25 22.94-108 42.44-17.11 9.36-33.35 20.34-49.27 31.78s-31.28 23.76-46.43 36.41A1001.8 1001.8 0 0 0 480.92 600z" fill="#FFFFFF" p-id="23021"></path><path d="M561.2 519.77c5.37-12.34 11-24.53 16.71-36.69s11.51-24.27 17.47-36.29q17.7-36.17 36.41-71.81l0.51 5.52c-6.6-8.1-12.95-16.4-19.36-24.65s-12.6-16.67-18.84-25.06c-12.32-16.89-24.4-34-35.49-51.85 14.8 14.94 28.62 30.65 42.19 46.56 6.71 8 13.46 16 20 24.14s13.14 16.25 19.48 24.55l2 2.66-1.52 2.87q-18.9 35.54-38.69 70.61C595.56 462 588.8 473.65 582 485.25s-13.65 23.12-20.8 34.52z" fill="#FFFFFF" p-id="23022"></path><path d="M631.12 268.58a90.12 90.12 0 0 1-3.38 18.42 148.7 148.7 0 0 1-6.09 17.27 146.14 146.14 0 0 1-8.14 16.4 89 89 0 0 1-10.87 15.25 89 89 0 0 1 3.36-18.43 146.14 146.14 0 0 1 6.1-17.26 148.75 148.75 0 0 1 8.15-16.4 90.14 90.14 0 0 1 10.87-15.25zM688.09 289.29a82.56 82.56 0 0 1-15.78 8.45 135.36 135.36 0 0 1-16.54 5.61 133 133 0 0 1-17.12 3.46 81.52 81.52 0 0 1-17.89 0.6 81.52 81.52 0 0 1 15.78-8.41 133 133 0 0 1 16.55-5.6 135.35 135.35 0 0 1 17.12-3.45 82.58 82.58 0 0 1 17.88-0.66zM822.16 808.06L765 772.69l-57.39-35c-38.34-23.08-76.75-46.1-116-67.2l-14.73-7.82-14.88-7.45c-4.91-2.61-9.94-4.77-14.91-7.13l-15.44-7.2a226.42 226.42 0 0 1-56.89-40.32 298.32 298.32 0 0 1-23.56-25.44c-7.26-9-14-18.29-20.32-27.88a319.85 319.85 0 0 1-17.41-29.64 315.21 315.21 0 0 1-14.45-31.43l-0.29-0.75-0.1-0.6-11.19-70.23c-3.8-23.4-7.33-46.85-11.35-70.21l-0.08-0.47v-0.37c1-20.27 1.92-40.55 2.6-60.83s1.44-40.57 2-60.85L382 161l0.82-60.89 5.61 5-33.43 6.31 5-4.7c-3.31 19-5.54 38.67-7.29 58.12s-3.18 39-3.89 58.6-0.75 39.06-0.64 58.73l0.19 59.3c0.13 39.48-0.54 79.15 0.58 118.08 0.73 19.31 1.55 38.79 7.42 54.95 5.62 16.16 18.38 29.5 31.7 44.78 13.82 16.11 24 35.08 31 54.52s11.3 39.35 15.45 58.49 8.62 37.8 17.5 53.35a80 80 0 0 0 7.41 11 77.58 77.58 0 0 0 9.45 9.59c7.12 6.43 14.7 12.68 22.26 18.89 30.47 24.74 61.67 49 93.07 72.88l94.13 72-1.18 1.7c-66.62-42.7-132.24-86.6-196.08-133.81-7.92-6-15.82-12.06-23.61-18.58a95.59 95.59 0 0 1-11.7-11.09 94.21 94.21 0 0 1-9.64-13.2c-11.23-18.66-16.24-39-21.12-58.14s-9.12-38.11-15.83-55.68-15.75-33.77-27.87-47.5c-6.21-7-13.35-14.67-19.65-23s-12.38-18.06-16.11-28.6-5.63-21.17-6.78-31.46-1.59-20.43-1.81-30.46c-0.55-40 0.73-79.34 1.19-118.84l0.69-59.17c0.16-19.81 0.8-39.84 2.32-59.68s3.48-39.69 6.17-59.42c2.91-19.75 6.22-39.25 10.78-58.92l1-4.22 4-0.48 33.84-4 5.9-0.7-0.29 5.67-3.06 60.82-2.5 60.83q-1.15 30.42-1.92 60.86c-0.62 20.29-1 40.58-1.29 60.88l-0.06-0.84c4.61 23.25 9.71 46.41 14.54 69.62l14.73 69.6-0.39-1.35c8.8 19.59 20.46 38.7 32.79 56.64 6.25 9 12.9 17.66 20 25.93a282 282 0 0 0 22.24 23.75c15.75 14.81 33.06 27.89 52.14 37.54l14.95 7.2c5.12 2.51 10.36 4.85 15.33 7.56 10.1 5.18 20 10.67 29.78 16.31 39.25 22.34 76.94 46.84 114.18 72l27.78 19.06 27.43 19.55c18.22 13.11 36.4 26.27 54.18 40z" fill="#FFFFFF" p-id="23023"></path><path d="M535.31 550.84c11.87-4.2 23.82-8.11 35.77-12.07S595 530.88 607 527.11q36-11.42 72.08-22.2l-3.14 3c4-12.62 8.3-25.15 12.53-37.69s8.73-25 13.07-37.51c9-24.92 18.13-49.77 28-74.37l0.59-1.46 1.35-0.31 72.81-16.92q36.4-8.48 72.88-16.66-36 10-72.14 19.59l-72.21 19.33 1.94-1.77c-7.39 25.46-15.49 50.68-23.78 75.83-4.29 12.53-8.35 25.13-12.83 37.59s-8.74 25-13.36 37.41l-0.88 2.36-2.26 0.62q-36.37 10-72.93 19.23-18.26 4.71-36.63 9.05c-12.27 2.92-24.49 5.91-36.78 8.61z" fill="#FFFFFF" p-id="23024"></path><path d="M816.38 804.47a423 423 0 0 1-146.47 99.08L584.2 838c-31.39-23.88-62.62-48.11-93.07-72.87-7.56-6.22-15.12-12.43-22.27-18.9a77.91 77.91 0 0 1-9.43-9.58 72.9 72.9 0 0 1-7.41-11c-8.91-15.54-13.26-34.29-17.51-53.35s-8.34-39-15.49-58.47c-7-19.42-17.2-38.43-31-54.54-13.32-15.29-26.02-28.65-31.71-44.8-5.85-16.16-6.68-35.63-7.41-54.9-1.14-38.95-0.47-78.62-0.57-118.09l-0.21-59.3c-0.1-19.68-0.05-39.15 0.62-58.73s2-39.1 3.94-58.63c1.35-15.33 3-30.82 5.33-46 8.08-3.16 16.31-6.11 24.65-8.75L382 161l-1.4 60.86q-0.78 30.45-2 60.86c-0.6 20.28-1.6 40.55-2.6 60.85l-0.05 0.36 0.1 0.47c4 23.36 7.56 46.82 11.34 70.18l11.24 70.28 0.1 0.57 0.26 0.78a321.09 321.09 0 0 0 14.45 31.39 326.76 326.76 0 0 0 17.4 29.68c6.32 9.58 13.1 18.9 20.35 27.86a295.1 295.1 0 0 0 23.57 25.43 227.55 227.55 0 0 0 56.87 40.35l15.43 7.2c5 2.33 10 4.51 14.92 7.1l14.86 7.51 14.71 7.82c39.21 21.13 77.64 44.13 116 67.23L765 772.67z" fill="#2C3D71" p-id="23025"></path><path d="M512 960C265 960 64 759 64 512S265 64 512 64s448 201 448 448-201 448-448 448z m0-870.1C279.25 89.9 89.9 279.25 89.9 512S279.25 934.1 512 934.1 934.1 744.75 934.1 512 744.75 89.9 512 89.9z" fill="#1B1E3B" p-id="23026"></path></svg>