<svg t="1655284012971" class="icon" viewBox="0 0 1024 1024" version="1.1" xmlns="http://www.w3.org/2000/svg" p-id="18373" width="200" height="200"><path d="M145.358762 0h707.957077v156.137762H145.358762z" fill="#67B72F" p-id="18374"></path><path d="M181.358353 23.650894h650.085642V137.091467H183.869953S181.358353 10.464997 181.358353 23.650894z" fill="#FFE197" p-id="18375"></path><path d="M276.27588 132.591518a95.859377 95.859377 0 0 1-95.859376-95.859377 108.417374 108.417374 0 0 1 0.941849-13.081247h-2.406949A35.894941 35.894941 0 0 0 143.161113 59.545835v928.559224a35.790291 35.790291 0 0 0 35.790291 35.894941h666.097087a35.790291 35.790291 0 0 0 35.790292-35.894941V132.591518z" fill="#93E041" p-id="18376"></path><path d="M514.773172 577.144609m-207.939499 0a207.939499 207.939499 0 1 0 415.878998 0 207.939499 207.939499 0 1 0-415.878998 0Z" fill="#FED150" p-id="18377"></path><path d="M514.773172 577.144609m-143.998365 0a143.998365 143.998365 0 1 0 287.99673 0 143.998365 143.998365 0 1 0-287.99673 0Z" fill="#F89B1B" p-id="18378"></path><path d="M514.773172 833.223097m-49.080838 0a49.080838 49.080838 0 1 0 98.161676 0 49.080838 49.080838 0 1 0-98.161676 0Z" fill="#FED150" p-id="18379"></path><path d="M514.773172 327.44977m-49.080838 0a49.080838 49.080838 0 1 0 98.161676 0 49.080838 49.080838 0 1 0-98.161676 0Z" fill="#FED150" p-id="18380"></path><path d="M249.171537 843.897394c-8.581298 0-52.324987 4.813899-53.685437 46.987838s35.267041 41.85999 35.267041 41.85999a26.581094 26.581094 0 1 0 1.4651-53.057537s4.081349-5.232499 20.092795-4.185999 24.592744 16.011446 23.964844 38.197241-33.487992 77.650281-124.010219 75.661931c-3.139499 0-6.069699 0-9.104548-0.732549a35.790291 35.790291 0 0 0 25.429944 33.592641c80.37118-3.453449 137.405416-50.545938 138.975166-107.789473 1.6744-60.906285-49.918038-70.220133-58.394686-70.534083zM880.838783 159.695861v-27.104343h-49.394788c-58.290036 14.860296-96.905876 54.941237-98.266326 101.824425-1.6744 60.906285 49.918038 70.324783 58.394685 70.534083s52.324987-4.709249 53.790087-46.883189-35.371691-41.85999-35.371691-41.85999a26.685743 26.685743 0 1 0-1.4651 53.162187s-4.081349 5.232499-19.988145 4.185999-24.697394-16.011446-24.069494-38.19724 31.813592-74.301482 116.370772-75.661932z" fill="#016512" p-id="18381"></path><path d="M238.392589 124.84742a95.859377 95.859377 0 0 1-57.976085-88.115279 108.417374 108.417374 0 0 1 0.941849-13.081247h-2.406949A35.894941 35.894941 0 0 0 143.161113 59.545835v928.559224a35.790291 35.790291 0 0 0 35.790291 35.894941H238.392589z" fill="#016512" opacity=".3" p-id="18382"></path></svg>